# xmcd CD database file
#
# Track frame offsets:
#	150
#	15282
#	33937
#
# Disc length: 668 seconds
#
# Revision: 0
# Processed by: cddbd v1.5.1PL0 Copyright (c) Steve Scherf et al.
# Submitted via: CDex 1.51
#
DISCID=12029a03
DTITLE=doa - 英雄
DYEAR=2004
DGENRE=JPop
TTITLE0=英雄
TTITLE1=WE ARE ALL FREE
TTITLE2=左手だけは離さない
EXTD=YEAR: 2004
EXTT0=
EXTT1=
EXTT2=
PLAYORDER=
